<svg width="5" height="15" viewBox="0 0 5 15" fill="none" xmlns="http://www.w3.org/2000/svg">
<path d="M4.8088 14.6698C4.93123 14.4584 5 14.1716 5 13.8725C5 13.5735 4.93123 13.2867 4.8088 13.0753L1.57628 7.49319L4.8088 1.91111C4.92776 1.69843 4.99358 1.41357 4.99209 1.11789C4.9906 0.822216 4.92192 0.539376 4.80085 0.330293C4.67977 0.12121 4.51598 0.00261289 4.34476 4.35374e-05C4.17353 -0.00252582 4.00857 0.111139 3.88541 0.316557L0.191199 6.69591C0.0687744 6.90739 0 7.19417 0 7.49319C0 7.79222 0.0687744 8.079 0.191199 8.29047L3.88541 14.6698C4.00787 14.8812 4.17394 15 4.34711 15C4.52027 15 4.68634 14.8812 4.8088 14.6698Z" fill="white"/>
</svg>
