<svg width="64" height="62" viewBox="0 0 64 62" fill="none" xmlns="http://www.w3.org/2000/svg">
<ellipse cx="32" cy="31" rx="32" ry="31" fill="#514848"/>
<path d="M17.9507 45.3176C17.2366 44.8806 16.8354 44.2879 16.8354 43.6699C16.8354 43.052 17.2366 42.4593 17.9507 42.0222L36.8057 30.4859L17.9507 18.9496C17.2568 18.5101 16.8729 17.9214 16.8816 17.3103C16.8903 16.6992 17.2909 16.1147 17.9971 15.6826C18.7033 15.2505 19.6587 15.0054 20.6574 15.0001C21.6562 14.9948 22.6183 15.2297 23.3367 15.6542L44.8848 28.8382C45.5988 29.2753 46 29.8679 46 30.4859C46 31.1039 45.5988 31.6966 44.8848 32.1336L23.3367 45.3176C22.6224 45.7546 21.6538 46 20.6437 46C19.6337 46 18.665 45.7546 17.9507 45.3176Z" fill="white"/>
</svg>
